<svg width="565" height="279" viewBox="0 0 565 279" fill="none" xmlns="http://www.w3.org/2000/svg">
<path d="M460.992 278.01C443.552 278.01 428.417 275.379 414.718 269.966C385.744 258.509 365.307 232.851 363.865 206.091C362.564 181.937 377.179 157.326 399.395 146.23C408.732 141.652 419.001 139.295 429.4 139.343C443.516 139.35 457.328 143.445 469.167 151.132C474.951 154.935 480.282 159.596 485.445 164.108C494.473 171.998 503 179.45 513.845 182.906C518.497 184.391 523.543 185.08 528.421 185.745C536.105 186.796 544.048 187.88 550.821 192.079C558.051 196.561 562.871 204.259 564.351 213.769C566.279 226.05 562.543 239.455 554.624 248.748C540.284 265.575 517.2 271.349 498.71 274.497C484.808 276.863 472.474 278.01 460.992 278.01ZM429.415 141.955C419.421 141.907 409.551 144.17 400.576 148.568C379.261 159.211 365.239 182.79 366.487 205.951C368.088 235.69 392.353 258.316 415.692 267.541C429.068 272.843 443.885 275.403 461.002 275.403C472.334 275.403 484.524 274.265 498.281 271.923C516.352 268.848 538.867 263.247 552.662 247.051C559.993 238.448 563.58 225.544 561.82 214.164C560.456 205.435 556.079 198.383 549.495 194.31C543.195 190.406 535.868 189.404 528.113 188.343C523.124 187.663 517.962 186.955 513.098 185.403C501.737 181.778 492.603 173.796 483.772 166.075C478.677 161.621 473.409 157.018 467.779 153.311C456.357 145.898 443.032 141.953 429.415 141.955Z" fill="#FF6F28"/>
<path d="M201.56 232.842C180.472 221.524 173.246 194.624 175.444 172.987C177.233 155.35 183.899 138.586 190.348 122.376C192.185 117.754 194.089 112.972 195.839 108.263C202.192 91.1759 209.774 65.8177 202.365 42.9803C197.468 27.9032 185.374 15.2747 169.178 8.35314C152.982 1.43155 135.504 1.41228 121.222 8.2953C106.101 15.588 94.9282 28.954 84.1069 41.8814C79.1855 47.7714 74.0906 53.8688 68.6823 59.3637C59.3505 68.8061 47.382 76.0988 35.8521 79.3764C22.2399 83.2325 10.1413 81.4587 0.852783 74.2046L2.45791 72.1512C20.7746 86.4378 49.2763 75.2842 66.8265 57.532C72.1818 52.1143 77.2381 46.0652 82.1306 40.2088C93.111 27.0694 104.462 13.4817 120.094 5.94794C135.037 -1.28213 153.32 -1.28213 170.224 5.94794C187.129 13.178 199.738 26.3608 204.867 42.1561C212.531 65.7743 204.79 91.6965 198.307 109.155C196.542 113.898 194.638 118.689 192.797 123.326C186.415 139.372 179.816 155.967 178.067 173.237C175.96 194.012 182.8 219.789 202.823 230.538L201.56 232.842Z" fill="#FF6F28"/>
<path d="M87.7082 136.998L4.21997 220.484L6.06391 222.328L89.5521 138.842L87.7082 136.998Z" fill="#FF6F28"/>
<path d="M109.89 150.893L55.1003 205.682L56.9443 207.526L111.734 152.737L109.89 150.893Z" fill="#FF6F28"/>
<path d="M72.0567 121.345L32.9216 160.479L34.7655 162.322L73.9006 123.188L72.0567 121.345Z" fill="#FF6F28"/>
</svg>
