<svg width="70" height="76" viewBox="0 0 70 76" fill="none" xmlns="http://www.w3.org/2000/svg">
<path d="M0 10C0 4.47715 4.47715 0 10 0H60C65.5228 0 70 4.47715 70 10V66C70 71.5228 65.5228 76 60 76H10C4.47715 76 0 71.5228 0 66V10Z" fill="#1BA0AB"/>
<g clip-path="url(#clip0_110_76)">
<g clip-path="url(#clip1_110_76)">
<g clip-path="url(#clip2_110_76)">
<path d="M29.6705 38.3356C30.0644 38.254 30.4761 38.0753 30.8644 37.7949C31.981 36.9872 32.4766 35.661 31.9702 34.8312C31.4196 33.9286 29.9134 33.9893 28.756 35.0165C27.6492 35.9722 27.4131 36.9707 27.4131 38.0201C27.4131 38.7616 27.6503 40.0856 29.099 41.2354C29.7831 40.7069 30.5986 40.2721 31.5243 39.9577L31.5365 39.9532C30.8253 39.6568 29.8981 39.0718 29.6705 38.3356ZM29.4918 35.7834C29.4918 35.4733 29.7389 35.224 30.0436 35.224C30.348 35.224 30.5953 35.4745 30.5953 35.7846C30.5953 36.0946 30.348 36.3439 30.0436 36.3439C29.7389 36.3439 29.4918 36.0935 29.4918 35.7834Z" fill="white"/>
</g>
</g>
<g clip-path="url(#clip3_110_76)">
<g clip-path="url(#clip4_110_76)">
<path d="M42.607 38.0213C42.6036 36.9708 42.3686 35.9723 41.2609 35.0166C40.1043 33.9905 38.5971 33.9276 38.0465 34.8313C37.5411 35.6611 38.0354 36.9874 39.152 37.795C39.5405 38.0754 39.9521 38.2541 40.346 38.3357C40.2092 38.7782 39.7932 39.2284 39.1588 39.6079C38.2864 40.1286 37.8152 40.193 32.2336 42.0465C30.1681 42.7482 28.939 44.1429 28.939 45.7771C28.939 46.9412 29.5336 47.8394 30.36 48.4971C30.8798 47.9619 31.5287 47.4974 32.2867 47.1255C31.4139 46.6842 31.1446 46.3498 31.1446 45.7771C31.1446 44.8319 33.0339 44.2915 33.9055 44.0039V46.3962L36.1123 45.4119V44.005C36.9853 44.2941 38.8698 44.8338 38.8698 45.7771C38.8698 47.3464 34.3762 48.2718 32.4644 49.5905C31.5365 50.2338 31.0375 51.0515 31.0375 52.0125C31.0375 52.5642 31.1017 53.2483 32.0704 53.928C32.3451 54.1475 32.7267 53.8269 32.5483 53.5186C31.9082 52.2375 32.5879 51.5976 33.9076 51.0436V52.8952C33.9076 53.5042 34.402 53.9986 35.0111 53.9986C35.6201 53.9986 36.1145 53.5042 36.1145 52.8952V51.0447C37.3822 51.5766 38.1801 52.328 37.4706 53.5186C37.2947 53.821 37.6692 54.1502 37.9472 53.928C38.8851 53.2174 38.9591 52.6083 38.9591 52.0268C38.9591 51.132 38.4692 50.2637 37.5401 49.5982C39.4182 48.9196 41.0798 47.7776 41.0798 45.7793C41.0798 44.399 40.2028 43.1896 38.6866 42.4238C39.3948 42.169 39.7512 41.9979 40.2246 41.7155C42.298 40.4763 42.607 38.8687 42.607 38.0213ZM39.9743 36.344C39.6696 36.344 39.4226 36.0936 39.4226 35.7835C39.4226 35.4734 39.6696 35.223 39.9743 35.223C40.2787 35.223 40.526 35.4734 40.526 35.7835C40.526 36.0936 40.2787 36.344 39.9743 36.344Z" fill="white"/>
</g>
</g>
<g clip-path="url(#clip5_110_76)">
<g clip-path="url(#clip6_110_76)">
<path d="M50.4476 24.209H42.8908C41.4084 24.209 40.296 24.8643 39.339 25.8213C38.2993 26.861 37.7587 29.1722 36.1032 29.1722V26.1076C36.7601 25.7253 37.2066 25.0217 37.2066 24.2068C37.2066 22.988 36.2186 22 34.9998 22C33.7809 22 32.793 22.988 32.793 24.2068C32.793 25.0216 33.2394 25.7253 33.8964 26.1076V39.2579C34.5774 39.0406 35.3248 38.8012 36.1032 38.5513V33.0242C36.5819 32.784 36.9682 32.3957 37.2051 31.9151C37.5889 32.571 38.3185 33.0363 39.1318 33.0363C39.9567 33.0363 40.6673 32.5783 41.0459 31.908C42.3386 33.2007 44.7413 33.2256 46.0339 31.933L44.1588 30.0579L45.019 30.4142C46.708 31.1138 48.6444 30.3117 49.3441 28.6227L46.6803 27.5193C49.2609 27.5192 50.4476 25.8999 50.4476 24.209Z" fill="white"/>
</g>
</g>
<g clip-path="url(#clip7_110_76)">
<g clip-path="url(#clip8_110_76)">
<path d="M30.6606 25.8213C29.7036 24.8643 28.5912 24.209 27.1087 24.209H19.552C19.552 25.8998 20.7387 27.5192 23.3193 27.5192L20.6554 28.6226C21.3551 30.3117 23.2915 31.1137 24.9806 30.4142L25.8408 30.0578L23.9657 31.9329C25.2583 33.2257 27.661 33.2008 28.9536 31.908C29.3322 32.5783 30.0429 33.0363 30.8678 33.0363C30.8759 33.0363 30.884 33.0362 30.8922 33.0361C31.9704 33.0239 32.7945 32.05 32.7945 30.9718V28.7519C31.9248 28.0383 31.4267 26.5874 30.6606 25.8213Z" fill="white"/>
</g>
</g>
</g>
<defs>
<clipPath id="clip0_110_76">
<rect width="32" height="32" fill="white" transform="translate(19 22)"/>
</clipPath>
<clipPath id="clip1_110_76">
<rect width="4.75568" height="7.03818" fill="white" transform="translate(27.4131 34.1973)"/>
</clipPath>
<clipPath id="clip2_110_76">
<rect width="4.75568" height="7.03818" fill="white" transform="translate(27.4131 34.1973)"/>
</clipPath>
<clipPath id="clip3_110_76">
<rect width="13.668" height="19.8036" fill="white" transform="translate(28.939 34.1973)"/>
</clipPath>
<clipPath id="clip4_110_76">
<rect width="13.668" height="19.8036" fill="white" transform="translate(28.939 34.1973)"/>
</clipPath>
<clipPath id="clip5_110_76">
<rect width="17.6546" height="17.2579" fill="white" transform="translate(32.793 22)"/>
</clipPath>
<clipPath id="clip6_110_76">
<rect width="17.6546" height="17.2579" fill="white" transform="translate(32.793 22)"/>
</clipPath>
<clipPath id="clip7_110_76">
<rect width="13.2425" height="8.8273" fill="white" transform="translate(19.552 24.209)"/>
</clipPath>
<clipPath id="clip8_110_76">
<rect width="13.2425" height="8.8273" fill="white" transform="translate(19.552 24.209)"/>
</clipPath>
</defs>
</svg>
