<svg width="131" height="23" viewBox="0 0 131 23" fill="none" xmlns="http://www.w3.org/2000/svg">
<g clip-path="url(#clip0_128_224)">
<path d="M20.1308 8.41866C20.0731 8.24885 19.967 8.09964 19.8255 7.98945C19.684 7.87926 19.5134 7.81292 19.3346 7.79861L14.1055 7.3831L11.8426 2.37409C11.7706 2.21276 11.6534 2.07573 11.5051 1.97955C11.3569 1.88336 11.184 1.83213 11.0073 1.83203C10.8306 1.83193 10.6577 1.88298 10.5094 1.979C10.361 2.07502 10.2437 2.21192 10.1714 2.37317L7.90862 7.3831L2.67947 7.79861C2.50378 7.81253 2.33582 7.87677 2.19568 7.98364C2.05554 8.09052 1.94916 8.23551 1.88926 8.40126C1.82937 8.56701 1.81849 8.74651 1.85794 8.91828C1.89739 9.09005 1.98549 9.24682 2.1117 9.36983L5.97601 13.1369L4.60933 19.0549C4.56783 19.234 4.58113 19.4215 4.6475 19.593C4.71388 19.7645 4.83026 19.9121 4.98154 20.0166C5.13283 20.1211 5.31204 20.1777 5.49591 20.1791C5.67979 20.1805 5.85983 20.1266 6.0127 20.0244L11.007 16.6949L16.0014 20.0244C16.1576 20.1282 16.3419 20.1816 16.5294 20.1774C16.7169 20.1733 16.8986 20.1119 17.0501 20.0014C17.2017 19.8909 17.3158 19.7367 17.377 19.5595C17.4383 19.3822 17.4438 19.1904 17.3928 19.01L15.7152 13.1397L19.8758 9.39551C20.1482 9.1497 20.2482 8.76629 20.1308 8.41866V8.41866Z" fill="#F3CD03"/>
<path d="M47.1457 8.41866C47.0881 8.24885 46.9819 8.09964 46.8404 7.98945C46.699 7.87926 46.5283 7.81292 46.3495 7.79861L41.1204 7.3831L38.8576 2.37409C38.7855 2.21276 38.6683 2.07573 38.5201 1.97955C38.3719 1.88336 38.199 1.83213 38.0223 1.83203C37.8456 1.83193 37.6726 1.88298 37.5243 1.979C37.376 2.07502 37.2586 2.21192 37.1864 2.37317L34.9236 7.3831L29.6944 7.79861C29.5187 7.81253 29.3508 7.87677 29.2106 7.98364C29.0705 8.09052 28.9641 8.23551 28.9042 8.40126C28.8443 8.56701 28.8334 8.74651 28.8729 8.91828C28.9123 9.09005 29.0004 9.24682 29.1266 9.36983L32.9909 13.1369L31.6243 19.0549C31.5828 19.234 31.5961 19.4215 31.6624 19.593C31.7288 19.7645 31.8452 19.9121 31.9965 20.0166C32.1478 20.1211 32.327 20.1777 32.5109 20.1791C32.6947 20.1805 32.8748 20.1266 33.0276 20.0244L38.022 16.6949L43.0163 20.0244C43.1726 20.1282 43.3568 20.1816 43.5443 20.1774C43.7318 20.1733 43.9135 20.1119 44.0651 20.0014C44.2166 19.8909 44.3307 19.7367 44.392 19.5595C44.4532 19.3822 44.4587 19.1904 44.4078 19.01L42.7301 13.1397L46.8907 9.39551C47.1631 9.1497 47.2631 8.76629 47.1457 8.41866V8.41866Z" fill="#F3CD03"/>
<path d="M74.1567 8.41866C74.0991 8.24885 73.9929 8.09964 73.8515 7.98945C73.71 7.87926 73.5393 7.81292 73.3606 7.79861L68.1314 7.3831L65.8686 2.37409C65.7965 2.21276 65.6793 2.07573 65.5311 1.97955C65.3829 1.88336 65.21 1.83213 65.0333 1.83203C64.8566 1.83193 64.6836 1.88298 64.5353 1.979C64.387 2.07502 64.2696 2.21192 64.1974 2.37317L61.9346 7.3831L56.7054 7.79861C56.5297 7.81253 56.3618 7.87677 56.2216 7.98364C56.0815 8.09052 55.9751 8.23551 55.9152 8.40126C55.8553 8.56701 55.8444 8.74651 55.8839 8.91828C55.9233 9.09005 56.0114 9.24682 56.1377 9.36983L60.002 13.1369L58.6353 19.0549C58.5938 19.234 58.6071 19.4215 58.6735 19.593C58.7398 19.7645 58.8562 19.9121 59.0075 20.0166C59.1588 20.1211 59.338 20.1777 59.5219 20.1791C59.7057 20.1805 59.8858 20.1266 60.0387 20.0244L65.033 16.6949L70.0273 20.0244C70.1836 20.1282 70.3678 20.1816 70.5553 20.1774C70.7428 20.1733 70.9246 20.1119 71.0761 20.0014C71.2276 19.8909 71.3417 19.7367 71.403 19.5595C71.4642 19.3822 71.4697 19.1904 71.4188 19.01L69.7412 13.1397L73.9017 9.39551C74.1741 9.1497 74.2741 8.76629 74.1567 8.41866V8.41866Z" fill="#F3CD03"/>
<path d="M101.171 8.41866C101.113 8.24885 101.007 8.09964 100.865 7.98945C100.724 7.87926 100.553 7.81292 100.375 7.79861L95.1454 7.3831L92.8826 2.37409C92.8105 2.21276 92.6933 2.07573 92.5451 1.97955C92.3968 1.88336 92.224 1.83213 92.0473 1.83203C91.8706 1.83193 91.6976 1.88298 91.5493 1.979C91.401 2.07502 91.2836 2.21192 91.2114 2.37317L88.9486 7.3831L83.7194 7.79861C83.5437 7.81253 83.3757 7.87677 83.2356 7.98364C83.0955 8.09052 82.9891 8.23551 82.9292 8.40126C82.8693 8.56701 82.8584 8.74651 82.8979 8.91828C82.9373 9.09005 83.0254 9.24682 83.1516 9.36983L87.0159 13.1369L85.6493 19.0549C85.6078 19.234 85.6211 19.4215 85.6874 19.593C85.7538 19.7645 85.8702 19.9121 86.0215 20.0166C86.1728 20.1211 86.352 20.1777 86.5358 20.1791C86.7197 20.1805 86.8998 20.1266 87.0526 20.0244L92.047 16.6949L97.0413 20.0244C97.1975 20.1282 97.3818 20.1816 97.5693 20.1774C97.7568 20.1733 97.9385 20.1119 98.0901 20.0014C98.2416 19.8909 98.3557 19.7367 98.4169 19.5595C98.4782 19.3822 98.4837 19.1904 98.4328 19.01L96.7551 13.1397L100.916 9.39551C101.188 9.1497 101.288 8.76629 101.171 8.41866V8.41866Z" fill="#F3CD03"/>
<path d="M114.032 13.1384L112.665 19.0564C112.623 19.2356 112.635 19.4234 112.702 19.5953C112.768 19.7671 112.884 19.9151 113.035 20.0198C113.187 20.1245 113.366 20.1811 113.551 20.1822C113.735 20.1833 113.915 20.1288 114.068 20.0259L119.062 16.6964L124.056 20.0259C124.212 20.1297 124.397 20.1831 124.584 20.1789C124.772 20.1748 124.953 20.1134 125.105 20.0029C125.257 19.8924 125.371 19.7382 125.432 19.5609C125.493 19.3837 125.499 19.1919 125.448 19.0115L123.77 13.1412L127.931 9.39701C128.064 9.27702 128.159 9.12061 128.204 8.94712C128.25 8.77362 128.243 8.59065 128.186 8.42083C128.128 8.25102 128.022 8.1018 127.88 7.99164C127.739 7.88148 127.568 7.81521 127.389 7.80102L122.16 7.3846L119.897 2.37558C119.825 2.21429 119.708 2.07733 119.56 1.98123C119.412 1.88512 119.239 1.83398 119.062 1.83398C118.885 1.83398 118.712 1.88512 118.564 1.98123C118.416 2.07733 118.298 2.21429 118.226 2.37558L115.963 7.3846L110.734 7.8001C110.559 7.81402 110.391 7.87826 110.251 7.98514C110.11 8.09201 110.004 8.237 109.944 8.40275C109.884 8.56851 109.873 8.748 109.913 8.91977C109.952 9.09154 110.04 9.24831 110.167 9.37133L114.032 13.1384V13.1384ZM116.649 9.17045C116.812 9.15755 116.97 9.10085 117.104 9.00628C117.238 8.91171 117.344 8.78276 117.412 8.63295L119.062 4.98144L120.712 8.63295C120.779 8.78276 120.886 8.91171 121.02 9.00628C121.154 9.10085 121.311 9.15755 121.475 9.17045L125.118 9.45938L122.118 12.1597C121.858 12.3945 121.754 12.7559 121.849 13.0935L122.999 17.1155L119.572 14.8307C119.421 14.7298 119.244 14.6758 119.063 14.6758C118.882 14.6758 118.705 14.7298 118.555 14.8307L114.974 17.2183L115.937 13.0485C115.972 12.8952 115.967 12.7353 115.923 12.5843C115.879 12.4333 115.796 12.2962 115.684 12.1863L112.897 9.46947L116.649 9.17045V9.17045Z" fill="#F3CD03"/>
</g>
<defs>
<clipPath id="clip0_128_224">
<rect width="130.068" height="22.0136" fill="white"/>
</clipPath>
</defs>
</svg>
