<svg width="70" height="76" viewBox="0 0 70 76" fill="none" xmlns="http://www.w3.org/2000/svg">
<path d="M0 10C0 4.47715 4.47715 0 10 0H60C65.5228 0 70 4.47715 70 10V66C70 71.5228 65.5228 76 60 76H10C4.47715 76 0 71.5228 0 66V10Z" fill="#1BA0AB"/>
<g clip-path="url(#clip0_110_60)">
<g clip-path="url(#clip1_110_60)">
<path d="M34.9909 26.218C28.0159 20.1173 19.1472 25.4776 19.0018 32.7442C18.9647 34.5961 19.4993 36.4 20.5634 38.0631H27.4607L28.6874 36.0184C29.0437 35.4247 29.9057 35.4056 30.2821 35.9974L32.8705 40.0648L36.6435 32.0997C36.9726 31.4047 37.9532 31.3827 38.3161 32.0566L41.5503 38.0631H49.4184C55.2468 28.9538 43.7279 18.5764 34.9909 26.218V26.218Z" fill="white"/>
<path d="M40.1651 39.4453L37.5443 34.5781L33.8382 42.4019C33.5229 43.0675 32.5956 43.1253 32.2002 42.5039L29.5148 38.284L28.7952 39.4832C28.6258 39.7655 28.3207 39.9383 27.9914 39.9383H22.0464C22.2327 40.1333 21.2395 39.1421 34.3297 52.1645C34.6953 52.5283 35.2863 52.5283 35.652 52.1645C48.5407 39.3424 47.7493 40.133 47.9353 39.9383H40.9904C40.6455 39.9383 40.3286 39.749 40.1651 39.4453V39.4453Z" fill="white"/>
</g>
</g>
<defs>
<clipPath id="clip0_110_60">
<rect width="32" height="32" fill="white" transform="translate(19 22)"/>
</clipPath>
<clipPath id="clip1_110_60">
<rect width="32" height="28.8744" fill="white" transform="translate(19 23.5625)"/>
</clipPath>
</defs>
</svg>
