<svg width="40" height="40" viewBox="0 0 40 40" fill="none" xmlns="http://www.w3.org/2000/svg">
<circle cx="20" cy="20" r="20" fill="white"/>
<path d="M23.7829 13.25C24.238 13.2496 24.6885 13.3401 25.1082 13.5161C25.5278 13.6921 25.9081 13.9501 26.2267 14.275C26.8832 14.9415 27.2512 15.8395 27.2512 16.775C27.2512 17.7105 26.8832 18.6085 26.2267 19.275L19.7517 25.8313L13.2767 19.275C12.6202 18.6085 12.2522 17.7105 12.2522 16.775C12.2522 15.8395 12.6202 14.9415 13.2767 14.275C13.5955 13.9503 13.9758 13.6925 14.3954 13.5164C14.815 13.3404 15.2654 13.2497 15.7204 13.2497C16.1755 13.2497 16.6259 13.3404 17.0455 13.5164C17.4651 13.6925 17.8454 13.9503 18.1642 14.275L19.7517 15.9L21.3329 14.2875C21.6506 13.9587 22.0313 13.6974 22.4522 13.5192C22.8732 13.3409 23.3258 13.2493 23.7829 13.25ZM23.7829 12C23.1615 11.9995 22.5461 12.123 21.973 12.3634C21.3999 12.6038 20.8806 12.9563 20.4454 13.4L19.7517 14.1L19.0579 13.4C18.6223 12.9571 18.1028 12.6053 17.5298 12.3651C16.9568 12.125 16.3417 12.0013 15.7204 12.0013C15.0992 12.0013 14.4841 12.125 13.9111 12.3651C13.3381 12.6053 12.8186 12.9571 12.3829 13.4C11.4966 14.3023 11 15.5165 11 16.7813C11 18.046 11.4966 19.2602 12.3829 20.1625L19.7517 27.625L27.1204 20.1625C28.0068 19.2602 28.5034 18.046 28.5034 16.7813C28.5034 15.5165 28.0068 14.3023 27.1204 13.4C26.6849 12.9568 26.1655 12.6048 25.5925 12.3644C25.0195 12.1241 24.4043 12.0002 23.7829 12Z" fill="#26335D"/>
</svg>
