<svg width="26" height="21" viewBox="0 0 26 21" fill="none" xmlns="http://www.w3.org/2000/svg">
<path fill-rule="evenodd" clip-rule="evenodd" d="M0.08125 2.71667C0.24508 1.9804 0.647815 1.32302 1.2235 0.852181C1.79918 0.38134 2.51369 0.124949 3.25 0.125H22.75C23.4863 0.124949 24.2008 0.38134 24.7765 0.852181C25.3522 1.32302 25.7549 1.9804 25.9187 2.71667L13 10.815L0.08125 2.71667ZM0 4.62V16.46L9.42988 10.53L0 4.62ZM10.9866 11.5083L0.310375 18.22C0.574156 18.7905 0.990481 19.2724 1.5109 19.6096C2.03131 19.9469 2.63441 20.1256 3.25 20.125H22.75C23.3655 20.1251 23.9684 19.946 24.4885 19.6085C25.0086 19.2709 25.4246 18.7889 25.688 18.2183L15.0118 11.5067L13 12.7683L10.9866 11.5067V11.5083ZM16.5701 10.5317L26 16.46V4.62L16.5701 10.53V10.5317Z" fill="#1BA0AB"/>
</svg>
