<svg width="16" height="16" viewBox="0 0 16 16" fill="none" xmlns="http://www.w3.org/2000/svg">
<path d="M15.8333 13.8327H1.5V0.832682C1.5 0.741016 1.425 0.666016 1.33333 0.666016H0.166667C0.075 0.666016 0 0.741016 0 0.832682V15.166C0 15.2577 0.075 15.3327 0.166667 15.3327H15.8333C15.925 15.3327 16 15.2577 16 15.166V13.9993C16 13.9077 15.925 13.8327 15.8333 13.8327ZM3 12.4993H14.1667C14.2583 12.4993 14.3333 12.4243 14.3333 12.3327V3.24935C14.3333 3.09935 14.1521 3.02643 14.0479 3.1306L9.66667 7.51185L7.05417 4.92852C7.02284 4.8975 6.98054 4.8801 6.93646 4.8801C6.89238 4.8801 6.85007 4.8975 6.81875 4.92852L2.88125 8.87852C2.86596 8.89384 2.85385 8.91203 2.84562 8.93206C2.8374 8.95208 2.83322 8.97354 2.83333 8.99518V12.3327C2.83333 12.4243 2.90833 12.4993 3 12.4993Z" fill="#F69B25"/>
</svg>
