<svg width="13" height="14" viewBox="0 0 13 14" fill="none" xmlns="http://www.w3.org/2000/svg">
<path d="M6.472 13.6667C3.17645 13.6232 0.515437 10.9622 0.472 7.66668C0.515437 4.37113 3.17645 1.71011 6.472 1.66668C9.76755 1.71011 12.4286 4.37113 12.472 7.66668C12.4286 10.9622 9.76755 13.6232 6.472 13.6667ZM6.472 3.00001C3.90878 3.03376 1.83908 5.10346 1.80533 7.66668C1.83908 10.2299 3.90878 12.2996 6.472 12.3333C9.03522 12.2996 11.1049 10.2299 11.1387 7.66668C11.1049 5.10346 9.03522 3.03376 6.472 3.00001ZM9.80533 8.33334H5.80533V4.33334H7.13867V7.00001H9.80533V8.33334ZM12 3.47201L9.994 1.47201L10.9333 0.527344L12.94 2.52734L12 3.47134V3.47201ZM0.943333 3.47201L0 2.52734L1.994 0.527344L2.93733 1.47201L0.944667 3.47201H0.943333Z" fill="#1BA0AB"/>
</svg>
